<svg xmlns="http://www.w3.org/2000/svg" width="161" height="40" fill="none" viewBox="0 0 161 40"><path fill="#fff" d="M25.896 20.026a5.99 5.99 0 0 0 2.15-4.602 5.99 5.99 0 0 0-2.15-4.602q.226-.11.434-.238a5.694 5.694 0 0 1 8.695 4.84 5.694 5.694 0 0 1-8.695 4.84 5 5 0 0 0-.434-.238"/><path fill="#fff" d="M24.315 16.32a5.99 5.99 0 0 0-.44-5.06 5.99 5.99 0 0 0-4.161-2.91q.142-.208.256-.423a5.692 5.692 0 0 1 9.95-.157 5.696 5.696 0 0 1-5.111 8.54 5 5 0 0 0-.494.01"/><path fill="#fff" d="M21.093 13.903a5.99 5.99 0 0 0-2.91-4.164 5.98 5.98 0 0 0-5.058-.439q.018-.25.01-.494a5.692 5.692 0 0 1 8.538-5.113 5.696 5.696 0 0 1-.157 9.953 5 5 0 0 0-.423.256"/><path fill="#fff" d="M17.093 13.42a5.99 5.99 0 0 0-4.601-2.15c-1.848 0-3.5.835-4.6 2.15a5 5 0 0 0-.238-.434 5.694 5.694 0 1 1 9.677 0 5 5 0 0 0-.238.434"/><path fill="#fff" d="M13.388 15.002a5.98 5.98 0 0 0-5.06.439 5.99 5.99 0 0 0-2.909 4.163 5 5 0 0 0-.423-.256 5.696 5.696 0 0 1-.157-9.953 5.692 5.692 0 0 1 8.538 5.113 5 5 0 0 0 .01.494"/><path fill="#fff" d="M10.97 18.225a5.99 5.99 0 0 0-4.162 2.91 5.99 5.99 0 0 0-.439 5.06 5 5 0 0 0-.494-.01 5.696 5.696 0 0 1-5.111-8.54 5.692 5.692 0 0 1 9.95.157 5 5 0 0 0 .256.423"/><path fill="#fff" d="M10.485 22.226a5.99 5.99 0 0 0-2.15 4.602c0 1.848.836 3.502 2.15 4.602q-.226.11-.433.238a5.694 5.694 0 0 1-8.695-4.84 5.694 5.694 0 0 1 8.695-4.84q.207.129.433.238"/><path fill="#fff" d="M12.066 25.932a5.99 5.99 0 0 0 .44 5.06 5.99 5.99 0 0 0 4.16 2.911q-.14.209-.256.423a5.692 5.692 0 0 1-9.95.157 5.696 5.696 0 0 1 5.112-8.54q.243.007.494-.01"/><path fill="#fff" d="M15.289 28.352a5.99 5.99 0 0 0 2.909 4.163 5.98 5.98 0 0 0 5.06.439 5 5 0 0 0-.012.494 5.692 5.692 0 0 1-8.538 5.113 5.696 5.696 0 0 1 .158-9.953q.215-.115.423-.256"/><path fill="#fff" d="M19.288 28.835a5.98 5.98 0 0 0 4.6 2.15c1.848 0 3.5-.835 4.601-2.15q.11.227.238.434a5.694 5.694 0 1 1-9.677 0q.129-.207.238-.434"/><path fill="#fff" d="M22.994 27.254a5.98 5.98 0 0 0 5.06-.439 5.99 5.99 0 0 0 2.909-4.163q.208.141.422.257a5.696 5.696 0 0 1 .157 9.953 5.692 5.692 0 0 1-8.537-5.113 5 5 0 0 0-.01-.495"/><path fill="#fff" d="m29.578 21.115-.003.006a5.99 5.99 0 0 1-4.162 2.91q.141.209.257.423a5.693 5.693 0 0 0 9.95.157 5.7 5.7 0 0 0-1.03-6.997 5.7 5.7 0 0 1-5.012 3.5M49.732 10.359v17.01h-3.768v-17.01zm-3.171 17.01.069-3.334h9.766v3.333zm10.425-5.77q0-1.815.758-3.172a5.3 5.3 0 0 1 2.137-2.138q1.378-.758 3.217-.758 1.838 0 3.194.758a5.3 5.3 0 0 1 2.137 2.138q.758 1.356.758 3.172t-.758 3.172a5.36 5.36 0 0 1-2.137 2.115q-1.356.758-3.194.758-1.839 0-3.217-.758a5.36 5.36 0 0 1-2.137-2.115q-.758-1.357-.758-3.172m3.561-.023q0 .874.322 1.54a2.5 2.5 0 0 0 .896 1.011q.574.345 1.333.345.758 0 1.332-.345.574-.367.874-1.011.321-.666.321-1.54 0-.873-.321-1.517a2.2 2.2 0 0 0-.874-.989q-.575-.367-1.332-.367-.759 0-1.333.367-.575.345-.896.989t-.322 1.517m9.439-.16q0-1.77.712-3.104.713-1.333 1.953-2.069 1.241-.758 2.85-.758 1.355 0 2.39.551 1.056.551 1.424 1.448l-.345.23.276-1.838h3.194v10.757q0 2.022-.781 3.494a5.47 5.47 0 0 1-2.23 2.298q-1.423.805-3.4.805-1.654 0-2.987-.667a5.5 5.5 0 0 1-2.137-1.839q-.804-1.195-.965-2.758h3.585q.045.989.78 1.517.76.529 1.931.529 1.31 0 2.022-.736.712-.712.712-1.908v-2.436l.322.299q-.368.896-1.424 1.448-1.058.552-2.436.551-1.586 0-2.827-.735a5.3 5.3 0 0 1-1.93-2.046q-.69-1.31-.689-3.034m3.584-.093q0 .828.345 1.471t.92 1.011q.574.345 1.263.345.828 0 1.448-.344.643-.369.988-1.012.367-.644.367-1.47 0-.851-.367-1.449a2.56 2.56 0 0 0-1.011-.965q-.62-.345-1.448-.345-.689 0-1.264.345-.574.345-.919.965-.322.62-.322 1.448m10.131.276q0-1.815.759-3.172a5.3 5.3 0 0 1 2.137-2.138q1.378-.758 3.217-.758 1.838 0 3.194.758a5.3 5.3 0 0 1 2.136 2.138q.759 1.356.759 3.172t-.759 3.172a5.36 5.36 0 0 1-2.137 2.115q-1.355.758-3.193.758t-3.217-.758a5.36 5.36 0 0 1-2.137-2.115q-.759-1.357-.759-3.172m3.562-.023q0 .874.322 1.54a2.5 2.5 0 0 0 .896 1.011q.574.345 1.333.345.758 0 1.332-.345.575-.367.873-1.011.322-.666.322-1.54 0-.873-.322-1.517a2.2 2.2 0 0 0-.873-.989q-.575-.367-1.332-.367-.759 0-1.333.367-.575.345-.896.989t-.322 1.517m10.128 5.792V15.876h3.562v11.492zm1.792-13.285q-.85 0-1.447-.575a2.01 2.01 0 0 1-.575-1.448q0-.85.575-1.425.597-.575 1.447-.575.828 0 1.402.575a1.9 1.9 0 0 1 .598 1.425q0 .85-.598 1.448-.574.575-1.402.575m4.073 18.802v-17.01h3.24l.183 1.403q.483-.805 1.539-1.288a5.4 5.4 0 0 1 2.275-.482q1.609 0 2.804.712t1.884 2.046q.688 1.31.736 3.172.044 1.816-.598 3.241-.643 1.402-1.861 2.207-1.219.804-2.941.804-1.196 0-2.229-.414-1.034-.413-1.54-1.057v6.666zm3.561-11.263q0 .85.345 1.517.367.643.988 1.011.643.345 1.47.345.85 0 1.448-.368.62-.367.942-1.011.345-.644.345-1.494t-.345-1.494a2.4 2.4 0 0 0-.942-1.012q-.597-.367-1.448-.367-.827 0-1.47.367a2.55 2.55 0 0 0-.988.989q-.346.644-.345 1.517m9.706 2.115h3.195q0 .597.39.942.414.345 1.194.345.46 0 .759-.115a1 1 0 0 0 .482-.322.8.8 0 0 0 .184-.506q0-.298-.206-.505-.185-.207-.644-.322l-2.021-.529q-1.702-.459-2.413-1.356a3.2 3.2 0 0 1-.713-2.046q0-1.149.575-2a3.8 3.8 0 0 1 1.608-1.333q1.01-.482 2.275-.482 1.907 0 3.125 1.057 1.24 1.035 1.31 2.827h-3.195q.025-.597-.344-.942-.368-.368-.965-.368-.529 0-.873.276-.322.252-.322.712 0 .438.322.644.322.184.873.322l2.045.506q1.425.345 2.16 1.172t.735 2.115q0 1.77-1.309 2.804-1.31 1.035-3.401 1.034-2.16 0-3.47-1.08-1.287-1.104-1.356-2.85m15.182 3.93q-2.022 0-3.125-1.264-1.102-1.264-1.103-3.31v-7.217h3.539v5.93q0 1.609.575 2.16.574.552 1.516.552 1.218 0 1.677-.69t.46-1.976v-5.976h3.539v11.492h-3.331l-.231-1.287q-.528.712-1.493 1.15a4.86 4.86 0 0 1-2.023.436m12.919-.299h-3.562V15.876h3.31l.252 1.976-.39-.414q.46-.873 1.378-1.402a3.94 3.94 0 0 1 2.023-.551q1.7 0 2.665.758.989.76 1.424 2h-.551q.276-1.24 1.333-2 1.057-.758 2.528-.758 2.228 0 3.286 1.195 1.056 1.195 1.056 3.172v7.516h-3.446v-6.642q0-1.08-.529-1.61-.505-.528-1.356-.528-.504 0-.965.23-.46.206-.758.758-.299.529-.299 1.517v6.275h-3.493v-6.642q0-1.08-.505-1.587-.505-.528-1.356-.528-.505 0-.988.23-.46.207-.758.758-.299.529-.299 1.494z"/></svg>