<svg width="104" height="40" viewBox="0 0 104 40" fill="none" xmlns="http://www.w3.org/2000/svg">
<g clip-path="url(#clip0_26_139)">
<path d="M24.6863 0C20.6248 0 16.7297 1.6134 13.8579 4.48528L4.48528 13.8579C1.6134 16.7297 0 20.6248 0 24.6863C0 33.1439 6.85619 40 15.3137 40C19.3752 40 23.2703 38.3865 26.1421 35.5147L32.6252 29.0316C32.6253 29.0317 32.6252 29.0315 32.6252 29.0316L51.5147 10.1421C52.8863 8.77055 54.7465 8 56.6863 8C59.9337 8 62.6869 10.1165 63.6415 13.0454L69.6029 7.08395C66.8833 2.82445 62.1147 0 56.6863 0C52.6248 0 48.7297 1.6134 45.8579 4.48528L20.4853 29.8579C19.1137 31.2295 17.2535 32 15.3137 32C11.2745 32 8 28.7256 8 24.6863C8 22.7465 8.77055 20.8863 10.1421 19.5147L19.5147 10.1421C20.8863 8.77055 22.7465 8 24.6863 8C27.9339 8 30.6869 10.1166 31.6415 13.0456L37.6031 7.08409C34.8835 2.82453 30.1148 0 24.6863 0Z" fill="white"/>
<path d="M52.4862 29.8579C51.1146 31.2295 49.2543 32 47.3146 32C44.0675 32 41.3146 29.884 40.3598 26.9556L34.3984 32.9169C37.1182 37.1759 41.8866 40 47.3146 40C51.376 40 55.2711 38.3865 58.143 35.5147L83.5155 10.1421C84.8871 8.77055 86.7474 8 88.6871 8C92.7264 8 96.0008 11.2745 96.0008 15.3137C96.0008 17.2535 95.2303 19.1137 93.8587 20.4853L84.4862 29.8579C83.1146 31.2295 81.2543 32 79.3146 32C76.0672 32 73.3142 29.8836 72.3595 26.9549L66.3982 32.9164C69.1178 37.1757 73.8863 40 79.3146 40C83.376 40 87.2711 38.3865 90.143 35.5147L99.5155 26.1421C102.387 23.2703 104.001 19.3752 104.001 15.3137C104.001 6.85619 97.1447 0 88.6871 0C84.6256 0 80.7306 1.6134 77.8587 4.48528L52.4862 29.8579Z" fill="white"/>
</g>
<defs>
<clipPath id="clip0_26_139">
<rect width="104" height="40" fill="white"/>
</clipPath>
</defs>
</svg>
